<svg width="23" height="23" viewBox="0 0 36 36" fill="none" xmlns="http://www.w3.org/2000/svg">
<g clip-path="url(#clip0)">
<path d="M34.0478 25.6865L29.1634 20.8021C27.419 19.0577 24.4535 19.7555 23.7557 22.0232C23.2324 23.5932 21.488 24.4655 19.918 24.1165C16.4292 23.2443 11.7193 18.7088 10.8471 15.0456C10.3237 13.4755 11.3704 11.7311 12.9404 11.2078C15.2081 10.5101 15.9059 7.54458 14.1615 5.80017L9.2771 0.915817C7.88157 -0.305272 5.78828 -0.305272 4.56719 0.915817L1.2528 4.2302C-2.06158 7.71903 1.60169 16.9644 9.80042 25.1631C17.9992 33.3619 27.2445 37.1997 30.7334 33.7108L34.0478 30.3964C35.2689 29.0009 35.2689 26.9076 34.0478 25.6865Z" fill="#37B46A"/>
</g>
<defs>
<clipPath id="clip0">
<rect width="35" height="35" fill="white"/>
</clipPath>
</defs>
</svg>